<svg width="148" height="36" viewBox="0 0 148 36" fill="none" xmlns="http://www.w3.org/2000/svg">
<g id="Logo">
<path id="Vector" d="M43.2676 25.4228H53.762V22.2618H46.9975V10.3555H43.2676V25.4228Z" fill="#111111"/>
<path id="Vector_2" d="M59.9795 23.3131C58.4833 23.3131 57.7036 22.0066 57.7036 20.0468C57.7036 18.087 58.4833 16.7594 59.9795 16.7594C61.4757 16.7594 62.2765 18.087 62.2765 20.0468C62.2765 22.0066 61.4757 23.3131 59.9795 23.3131ZM60.0006 25.7576C63.4777 25.7576 65.7536 23.292 65.7536 20.0468C65.7536 16.8015 63.4777 14.3359 60.0006 14.3359C56.5446 14.3359 54.2266 16.8015 54.2266 20.0468C54.2266 23.292 56.5446 25.7576 60.0006 25.7576Z" fill="#111111"/>
<path id="Vector_3" d="M71.7735 29.1519C73.3751 29.1519 74.787 28.7937 75.7353 27.9507C76.5993 27.171 77.1683 25.9909 77.1683 24.3683V14.6325H73.8809V15.7915H73.8387C73.2065 14.8854 72.2371 14.3164 70.8042 14.3164C68.1279 14.3164 66.2734 16.5502 66.2734 19.7111C66.2734 23.0196 68.5283 24.8319 70.9517 24.8319C72.2582 24.8319 73.0801 24.3051 73.7123 23.5886H73.7966V24.6633C73.7966 25.9699 73.1854 26.7285 71.7314 26.7285C70.5934 26.7285 70.0245 26.2438 69.8348 25.6748H66.5052C66.8424 27.9297 68.8022 29.1519 71.7735 29.1519ZM71.7525 22.2821C70.467 22.2821 69.6241 21.2284 69.6241 19.6058C69.6241 17.9621 70.467 16.9084 71.7525 16.9084C73.1854 16.9084 73.9441 18.1306 73.9441 19.5847C73.9441 21.102 73.2487 22.2821 71.7525 22.2821Z" fill="#111111"/>
<path id="Vector_4" d="M83.9268 23.3131C82.4306 23.3131 81.6509 22.0066 81.6509 20.0468C81.6509 18.087 82.4306 16.7594 83.9268 16.7594C85.423 16.7594 86.2238 18.087 86.2238 20.0468C86.2238 22.0066 85.423 23.3131 83.9268 23.3131ZM83.9479 25.7576C87.4249 25.7576 89.7004 23.292 89.7004 20.0468C89.7004 16.8015 87.4249 14.3359 83.9479 14.3359C80.4919 14.3359 78.1738 16.8015 78.1738 20.0468C78.1738 23.292 80.4919 25.7576 83.9479 25.7576Z" fill="#111111"/>
<path id="Vector_5" d="M90.7051 25.4228H94.14V14.6333H90.7051V25.4228ZM90.7051 13.1371H94.14V10.3555H90.7051V13.1371Z" fill="#111111"/>
<path id="Vector_6" d="M95.6289 28.9833H99.0638V24.3051H99.106C99.7803 25.2112 100.771 25.7591 102.162 25.7591C104.985 25.7591 106.861 23.5254 106.861 20.0272C106.861 16.782 105.112 14.3164 102.246 14.3164C100.771 14.3164 99.7171 14.9697 98.9795 15.939H98.9163V14.6325H95.6289V28.9833ZM101.277 23.1039C99.8014 23.1039 98.9585 21.9027 98.9585 20.1537C98.9585 18.4046 99.7171 17.077 101.213 17.077C102.688 17.077 103.384 18.2992 103.384 20.1537C103.384 21.987 102.583 23.1039 101.277 23.1039Z" fill="#111111"/>
<path id="Vector_7" d="M112.454 25.7591C115.278 25.7591 117.364 24.5369 117.364 22.1767C117.364 19.4161 115.131 18.9314 113.234 18.6153C111.864 18.3625 110.642 18.2571 110.642 17.4985C110.642 16.8241 111.295 16.508 112.138 16.508C113.086 16.508 113.74 16.803 113.866 17.7724H117.027C116.859 15.644 115.215 14.3164 112.159 14.3164C109.609 14.3164 107.502 15.4965 107.502 17.7724C107.502 20.3012 109.504 20.8069 111.38 21.123C112.812 21.3759 114.119 21.4813 114.119 22.4506C114.119 23.1461 113.466 23.5254 112.433 23.5254C111.295 23.5254 110.579 22.9986 110.452 21.9238H107.207C107.312 24.3051 109.293 25.7591 112.454 25.7591Z" fill="#111111"/>
<path id="Vector_8" d="M122.029 25.7384C123.526 25.7384 124.474 25.1483 125.254 24.0947H125.317V25.4223H128.604V14.6328H125.169V20.6597C125.169 21.9452 124.453 22.8303 123.273 22.8303C122.177 22.8303 121.65 22.177 121.65 20.9969V14.6328H118.236V21.7134C118.236 24.1157 119.543 25.7384 122.029 25.7384Z" fill="#111111"/>
<path id="Vector_9" d="M130.1 25.422H133.535V19.374C133.535 18.0885 134.167 17.1824 135.241 17.1824C136.274 17.1824 136.759 17.8567 136.759 19.0157V25.422H140.194V19.374C140.194 18.0885 140.805 17.1824 141.901 17.1824C142.933 17.1824 143.418 17.8567 143.418 19.0157V25.422H146.853V18.4046C146.853 15.9812 145.631 14.3164 143.186 14.3164C141.795 14.3164 140.636 14.9065 139.793 16.213H139.751C139.203 15.054 138.128 14.3164 136.717 14.3164C135.157 14.3164 134.125 15.054 133.45 16.1708H133.387V14.6325H130.1V25.422Z" fill="#111111"/>
<path id="Vector_10" d="M22.3118 1.73589L18.8584 0.810547L15.9482 11.6716L13.3208 1.86617L9.86734 2.79151L12.7061 13.3856L5.63546 6.31502L3.10739 8.84309L10.863 16.5987L1.20463 14.0108L0.279297 17.4641L10.8322 20.2918C10.7114 19.7707 10.6475 19.2277 10.6475 18.6698C10.6475 14.7207 13.8489 11.5193 17.798 11.5193C21.7471 11.5193 24.9484 14.7207 24.9484 18.6698C24.9484 19.2241 24.8853 19.7637 24.766 20.2818L34.3566 22.8516L35.2819 19.3982L24.687 16.5593L34.346 13.9712L33.4206 10.5178L22.8262 13.3565L29.8968 6.28599L27.3687 3.75792L19.7207 11.4059L22.3118 1.73589Z" fill="#111111"/>
<path id="Vector_11" d="M24.7554 20.3223C24.4593 21.574 23.8342 22.6985 22.9766 23.5995L29.9246 30.5476L32.4526 28.0195L24.7554 20.3223Z" fill="#111111"/>
<path id="Vector_12" d="M22.908 23.6719C22.04 24.5584 20.943 25.22 19.7129 25.561L22.2411 34.9965L25.6945 34.0711L22.908 23.6719Z" fill="#111111"/>
<path id="Vector_13" d="M19.5825 25.595C19.0118 25.7417 18.4136 25.8197 17.7971 25.8197C17.1367 25.8197 16.4971 25.7301 15.8899 25.5625L13.3594 35.0066L16.8127 35.9319L19.5825 25.595Z" fill="#111111"/>
<path id="Vector_14" d="M15.7683 25.5284C14.5569 25.1705 13.4795 24.5004 12.6292 23.6113L5.66406 30.5764L8.19213 33.1045L15.7683 25.5284Z" fill="#111111"/>
<path id="Vector_15" d="M12.5711 23.5492C11.7353 22.6544 11.1266 21.5449 10.8368 20.3125L1.21484 22.8907L2.14018 26.3441L12.5711 23.5492Z" fill="#111111"/>
</g>
</svg>
